{
    "accessors" : [{
        "bufferView" : 0, 
        "componentType" : 5123, 
        "count" : 768, 
        "max" : [405], 
        "min" : [0], 
        "type" : "SCALAR"
    }, {
        "bufferView" : 1, 
        "componentType" : 5126, 
        "count" : 406, 
        "max" : [1.88484, 0.092469, 1.88484], 
        "min" : [-1.88483, -0.063647, -1.88483], 
        "type" : "VEC3"
    }, {
        "bufferView" : 2, 
        "componentType" : 5126, 
        "count" : 406, 
        "max" : [0.995185, 1, 0.995185], 
        "min" : [-0.995185, -1, -0.995185], 
        "type" : "VEC3"
    }, {
        "bufferView" : 3, 
        "componentType" : 5126, 
        "count" : 31, 
        "max" : [1.25], 
        "min" : [0], 
        "type" : "SCALAR"
    }, {
        "bufferView" : 4, 
        "componentType" : 5126, 
        "count" : 31, 
        "max" : [1.0606, 1.0606, 1.0606], 
        "min" : [0.154743, 0.154743, 0.154743], 
        "type" : "VEC3"
    }], 
    "animations" : [{
        "channels" : [{
            "sampler" : 0, 
            "target" : {
                "node" : 0, 
                "path" : "scale"
            }
        }], 
        "samplers" : [{
            "input" : 3, 
            "interpolation" : "LINEAR", 
            "output" : 4
        }]
    }], 
    "asset" : {
        "generator" : "Khronos Blender glTF 2.0 exporter", 
        "version" : "2.0"
    }, 
    "bufferViews" : [{
        "buffer" : 0, 
        "byteLength" : 1536, 
        "byteOffset" : 0, 
        "target" : 34963
    }, {
        "buffer" : 0, 
        "byteLength" : 4872, 
        "byteOffset" : 1536, 
        "target" : 34962
    }, {
        "buffer" : 0, 
        "byteLength" : 4872, 
        "byteOffset" : 6408, 
        "target" : 34962
    }, {
        "buffer" : 0, 
        "byteLength" : 124, 
        "byteOffset" : 11280
    }, {
        "buffer" : 0, 
        "byteLength" : 372, 
        "byteOffset" : 11404
    }], 
    "buffers" : [{
        "byteLength" : 11776, 
        "uri" : "data:application/octet-stream;base64,"
    }], 
    "materials" : [{
        "alphaMode" : "BLEND", 
        "name" : "Material.001",
        "doubleSided": true,
        "emissiveFactor": [
            1,
            1,
            1
         ],
        "pbrMetallicRoughness" : {
            "baseColorFactor" : [0.20, 0.20, 0.64, 0.536083], 
            "metallicFactor" : 0
        }
    }], 
    "meshes" : [{
        "name" : "Circle", 
        "primitives" : [{
            "attributes" : {
                "NORMAL" : 2, 
                "POSITION" : 1
            }, 
            "indices" : 0, 
            "material" : 0
        }]
    }], 
    "nodes" : [{
        "mesh" : 0, 
        "name" : "Circle", 
        "rotation" : [0.707107, 0, -0, 0.707107], 
        "scale" : [0.154743, 0.154743, 0.154743]
    }], 
    "scene" : 0, 
    "scenes" : [{
        "name" : "Scene", 
        "nodes" : [0]
    }]
}
