{
    "accessors" : [
        {
            "bufferView" : 0, 
            "componentType" : 5123, 
            "count" : 2496, 
            "max" : [
                1649
            ], 
            "min" : [
                0
            ], 
            "type" : "SCALAR"
        }, 
        {
            "bufferView" : 1, 
            "componentType" : 5126, 
            "count" : 1650, 
            "max" : [
                1.3601045608520508, 
                0.0259350948035717, 
                1.3611804246902466
            ], 
            "min" : [
                -1.3601045608520508, 
                -0.004262721166014671, 
                -1.3590294122695923
            ], 
            "type" : "VEC3"
        }, 
        {
            "bufferView" : 2, 
            "componentType" : 5126, 
            "count" : 1650, 
            "max" : [
                0.9892003536224365, 
                0.9999712109565735, 
                0.9891939759254456
            ], 
            "min" : [
                -0.9892004728317261, 
                -0.9999712109565735, 
                -0.9894363284111023
            ], 
            "type" : "VEC3"
        }, 
        {
            "bufferView" : 3, 
            "componentType" : 5126, 
            "count" : 90, 
            "max" : [
                3.7083333333333335
            ], 
            "min" : [
                0.0
            ], 
            "type" : "SCALAR"
        }, 
        {
            "bufferView" : 4, 
            "componentType" : 5126, 
            "count" : 90, 
            "max" : [
                -0.0, 
                0.9999992251396179, 
                -0.0, 
                0.9991502165794373
            ], 
            "min" : [
                -0.0, 
                -0.0073183439671993256, 
                -0.0, 
                -0.9999732375144958
            ], 
            "type" : "VEC4"
        }
    ], 
    "animations" : [
        {
            "channels" : [
                {
                    "sampler" : 0, 
                    "target" : {
                        "node" : 0, 
                        "path" : "rotation"
                    }
                }
            ], 
            "samplers" : [
                {
                    "input" : 3, 
                    "interpolation" : "LINEAR", 
                    "output" : 4
                }
            ]
        }
    ], 
    "asset" : {
        "generator" : "Khronos Blender glTF 2.0 exporter", 
        "version" : "2.0"
    }, 
    "bufferViews" : [
        {
            "buffer" : 0, 
            "byteLength" : 4992, 
            "byteOffset" : 0, 
            "target" : 34963
        }, 
        {
            "buffer" : 0, 
            "byteLength" : 19800, 
            "byteOffset" : 4992, 
            "target" : 34962
        }, 
        {
            "buffer" : 0, 
            "byteLength" : 19800, 
            "byteOffset" : 24792, 
            "target" : 34962
        }, 
        {
            "buffer" : 0, 
            "byteLength" : 360, 
            "byteOffset" : 44592
        }, 
        {
            "buffer" : 0, 
            "byteLength" : 1440, 
            "byteOffset" : 44952
        }
    ], 
    "buffers" : [
        {
            "byteLength" : 46392, 
            "uri" : "spincircle.bin"
        }
    ], 
    "materials" : [
        {
            "alphaMode" : "BLEND", 
            "emissiveFactor" : [
                0.0005084429639772188, 
                0.4721980185533958, 
                0.6001053995069228
            ], 
            "name" : "Material.001", 
            "pbrMetallicRoughness" : {
                "baseColorFactor" : [
                    0.0003506503352992286, 
                    0.3256538201220902, 
                    0.4138658108393223, 
                    0.4845361113548279
                ], 
                "metallicFactor" : 0.0
            }
        }
    ], 
    "meshes" : [
        {
            "name" : "Circle", 
            "primitives" : [
                {
                    "attributes" : {
                        "NORMAL" : 2, 
                        "POSITION" : 1
                    }, 
                    "indices" : 0, 
                    "material" : 0
                }
            ]
        }
    ], 
    "nodes" : [
        {
            "mesh" : 0, 
            "name" : "Circle", 
            "rotation" : [
                0.0, 
                0.007318344432860613, 
                -0.0, 
                0.9999732375144958
            ], 
            "scale" : [
                3.045663356781006, 
                3.0456631183624268, 
                3.045663356781006
            ]
        }
    ], 
    "scene" : 0, 
    "scenes" : [
        {
            "name" : "Scene", 
            "nodes" : [
                0
            ]
        }
    ]
}
