{
    "accessors" : [
        {
            "bufferView" : 0, 
            "componentType" : 5123, 
            "count" : 3798, 
            "max" : [
                1255
            ], 
            "min" : [
                0
            ], 
            "type" : "SCALAR"
        }, 
        {
            "bufferView" : 1, 
            "componentType" : 5126, 
            "count" : 1256, 
            "max" : [
                32.603919982910156, 
                34.27956771850586, 
                -11.19189453125
            ], 
            "min" : [
                -35.262916564941406, 
                -33.58727264404297, 
                -30.793224334716797
            ], 
            "type" : "VEC3"
        }, 
        {
            "bufferView" : 2, 
            "componentType" : 5126, 
            "count" : 1256, 
            "max" : [
                1.0, 
                1.0, 
                1.0
            ], 
            "min" : [
                -1.0, 
                -1.0, 
                -1.0
            ], 
            "type" : "VEC3"
        }, 
        {
            "bufferView" : 3, 
            "componentType" : 5126, 
            "count" : 1256, 
            "max" : [
                1.0, 
                1.0, 
                0.3753849267959595, 
                1.0
            ], 
            "min" : [
                -1.0, 
                -1.0, 
                -0.9911887645721436, 
                -1.0
            ], 
            "type" : "VEC4"
        }, 
        {
            "bufferView" : 4, 
            "componentType" : 5126, 
            "count" : 1256, 
            "max" : [
                0.9987180233001709, 
                1.3558779954910278
            ], 
            "min" : [
                0.009331000037491322, 
                0.01992398500442505
            ], 
            "type" : "VEC2"
        }, 
        {
            "bufferView" : 5, 
            "componentType" : 5121, 
            "count" : 264, 
            "max" : [
                119
            ], 
            "min" : [
                0
            ], 
            "type" : "SCALAR"
        }, 
        {
            "bufferView" : 6, 
            "componentType" : 5126, 
            "count" : 120, 
            "max" : [
                32.603919982910156, 
                34.27956771850586, 
                -21.539451599121094
            ], 
            "min" : [
                -35.262916564941406, 
                -33.58727264404297, 
                -23.24878692626953
            ], 
            "type" : "VEC3"
        }, 
        {
            "bufferView" : 7, 
            "componentType" : 5126, 
            "count" : 120, 
            "max" : [
                1.0, 
                1.0, 
                -0.0
            ], 
            "min" : [
                -1.0, 
                -1.0, 
                -0.0
            ], 
            "type" : "VEC3"
        }, 
        {
            "bufferView" : 8, 
            "componentType" : 5126, 
            "count" : 120, 
            "max" : [
                1.0, 
                1.0, 
                0.5942695140838623, 
                1.0
            ], 
            "min" : [
                -1.0, 
                -1.0, 
                -0.5943872928619385, 
                -1.0
            ], 
            "type" : "VEC4"
        }, 
        {
            "bufferView" : 9, 
            "componentType" : 5126, 
            "count" : 120, 
            "max" : [
                0.9872410297393799, 
                0.8086439967155457
            ], 
            "min" : [
                0.009855000302195549, 
                0.7777750045061111
            ], 
            "type" : "VEC2"
        }, 
        {
            "bufferView" : 10, 
            "componentType" : 5121, 
            "count" : 1056, 
            "max" : [
                192
            ], 
            "min" : [
                0
            ], 
            "type" : "SCALAR"
        }, 
        {
            "bufferView" : 11, 
            "componentType" : 5126, 
            "count" : 193, 
            "max" : [
                13.515146255493164, 
                15.23526382446289, 
                -28.298036575317383
            ], 
            "min" : [
                -16.209312438964844, 
                -14.489194869995117, 
                -38.228660583496094
            ], 
            "type" : "VEC3"
        }, 
        {
            "bufferView" : 12, 
            "componentType" : 5126, 
            "count" : 193, 
            "max" : [
                0.8818933963775635, 
                0.8818933963775635, 
                -0.47138890624046326
            ], 
            "min" : [
                -0.8818933963775635, 
                -0.8818933963775635, 
                -0.999969482421875
            ], 
            "type" : "VEC3"
        }, 
        {
            "bufferView" : 13, 
            "componentType" : 5126, 
            "count" : 193, 
            "max" : [
                -0.47137725353240967, 
                0.17348141968250275, 
                0.8818850517272949, 
                1.0
            ], 
            "min" : [
                -0.9999952912330627, 
                -0.2054833322763443, 
                -0.8818851113319397, 
                1.0
            ], 
            "type" : "VEC4"
        }, 
        {
            "bufferView" : 14, 
            "componentType" : 5126, 
            "count" : 193, 
            "max" : [
                0.9922009706497192, 
                0.987193999812007
            ], 
            "min" : [
                0.708184003829956, 
                0.7033759951591492
            ], 
            "type" : "VEC2"
        }
    ], 
    "asset" : {
        "generator" : "Khronos Blender glTF 2.0 exporter", 
        "version" : "2.0"
    }, 
    "bufferViews" : [
        {
            "buffer" : 0, 
            "byteLength" : 7596, 
            "byteOffset" : 0, 
            "target" : 34963
        }, 
        {
            "buffer" : 0, 
            "byteLength" : 15072, 
            "byteOffset" : 7596, 
            "target" : 34962
        }, 
        {
            "buffer" : 0, 
            "byteLength" : 15072, 
            "byteOffset" : 22668, 
            "target" : 34962
        }, 
        {
            "buffer" : 0, 
            "byteLength" : 20096, 
            "byteOffset" : 37740, 
            "target" : 34962
        }, 
        {
            "buffer" : 0, 
            "byteLength" : 10048, 
            "byteOffset" : 57836, 
            "target" : 34962
        }, 
        {
            "buffer" : 0, 
            "byteLength" : 264, 
            "byteOffset" : 67884, 
            "target" : 34963
        }, 
        {
            "buffer" : 0, 
            "byteLength" : 1440, 
            "byteOffset" : 68148, 
            "target" : 34962
        }, 
        {
            "buffer" : 0, 
            "byteLength" : 1440, 
            "byteOffset" : 69588, 
            "target" : 34962
        }, 
        {
            "buffer" : 0, 
            "byteLength" : 1920, 
            "byteOffset" : 71028, 
            "target" : 34962
        }, 
        {
            "buffer" : 0, 
            "byteLength" : 960, 
            "byteOffset" : 72948, 
            "target" : 34962
        }, 
        {
            "buffer" : 0, 
            "byteLength" : 1056, 
            "byteOffset" : 73908, 
            "target" : 34963
        }, 
        {
            "buffer" : 0, 
            "byteLength" : 2316, 
            "byteOffset" : 74964, 
            "target" : 34962
        }, 
        {
            "buffer" : 0, 
            "byteLength" : 2316, 
            "byteOffset" : 77280, 
            "target" : 34962
        }, 
        {
            "buffer" : 0, 
            "byteLength" : 3088, 
            "byteOffset" : 79596, 
            "target" : 34962
        }, 
        {
            "buffer" : 0, 
            "byteLength" : 1544, 
            "byteOffset" : 82684, 
            "target" : 34962
        }
    ], 
    "buffers" : [
        {
            "byteLength" : 84228, 
            "uri" : "Unknown_1.bin"
        }
    ], 
    "images" : [
        {
            "uri" : "ufo_diffuse.png"
        }, 
        {
            "uri" : "ufo_diffuse_glow.png"
        }, 
        {
            "uri" : "Map__7_Normal_Bump.png"
        }, 
        {
            "uri" : "ufo_diffuse2.png"
        }, 
        {
            "uri" : "ufo_diffuse2_glow.png"
        }
    ], 
    "materials" : [
        {
            "alphaMode" : "BLEND", 
            "emissiveTexture" : {
                "index" : 2
            }, 
            "name" : "UFO_texture.001", 
            "normalTexture" : {
                "index" : 3
            }, 
            "occlusionTexture" : {
                "index" : 0
            }, 
            "pbrMetallicRoughness" : {
                "baseColorFactor" : [
                    0.5882350206375122, 
                    0.5882350206375122, 
                    0.5882350206375122, 
                    1.0
                ], 
                "baseColorTexture" : {
                    "index" : 0
                }, 
                "metallicFactor" : 0.0
            }
        }, 
        {
            "alphaMode" : "BLEND", 
            "emissiveTexture" : {
                "index" : 6
            }, 
            "name" : "UFO_texture2.001", 
            "occlusionTexture" : {
                "index" : 4
            }, 
            "pbrMetallicRoughness" : {
                "baseColorFactor" : [
                    0.5882350206375122, 
                    0.5882350206375122, 
                    0.5882350206375122, 
                    1.0
                ], 
                "baseColorTexture" : {
                    "index" : 4
                }, 
                "metallicFactor" : 0.0
            }
        }
    ], 
    "meshes" : [
        {
            "name" : "UFO_body.001", 
            "primitives" : [
                {
                    "attributes" : {
                        "NORMAL" : 2, 
                        "POSITION" : 1, 
                        "TANGENT" : 3, 
                        "TEXCOORD_0" : 4
                    }, 
                    "indices" : 0, 
                    "material" : 0
                }, 
                {
                    "attributes" : {
                        "NORMAL" : 7, 
                        "POSITION" : 6, 
                        "TANGENT" : 8, 
                        "TEXCOORD_0" : 9
                    }, 
                    "indices" : 5, 
                    "material" : 1
                }
            ]
        }, 
        {
            "name" : "UFO_cockpit", 
            "primitives" : [
                {
                    "attributes" : {
                        "NORMAL" : 12, 
                        "POSITION" : 11, 
                        "TANGENT" : 13, 
                        "TEXCOORD_0" : 14
                    }, 
                    "indices" : 10, 
                    "material" : 0
                }
            ]
        }
    ], 
    "nodes" : [
        {
            "mesh" : 0, 
            "name" : "UFO_body.001", 
            "rotation" : [
                0.7071068286895752, 
                0.0, 
                -0.0, 
                0.7071068286895752
            ], 
            "scale" : [
                0.12534871697425842, 
                0.12534871697425842, 
                0.12534871697425842
            ], 
            "translation" : [
                0.7139008641242981, 
                -1.249326229095459, 
                -2.384185791015625e-07
            ]
        }, 
        {
            "mesh" : 1, 
            "name" : "UFO_cockpit", 
            "rotation" : [
                0.7071068286895752, 
                0.0, 
                -0.0, 
                0.7071068286895752
            ], 
            "scale" : [
                0.12534871697425842, 
                0.12534871697425842, 
                0.12534871697425842
            ], 
            "translation" : [
                0.7139008641242981, 
                -1.249326229095459, 
                -2.384185791015625e-07
            ]
        }
    ], 
    "samplers" : [
        {}
    ], 
    "scene" : 0, 
    "scenes" : [
        {
            "name" : "Scene", 
            "nodes" : [
                1, 
                0
            ]
        }
    ], 
    "textures" : [
        {
            "sampler" : 0, 
            "source" : 0
        }, 
        {
            "sampler" : 0, 
            "source" : 0
        }, 
        {
            "sampler" : 0, 
            "source" : 1
        }, 
        {
            "sampler" : 0, 
            "source" : 2
        }, 
        {
            "sampler" : 0, 
            "source" : 3
        }, 
        {
            "sampler" : 0, 
            "source" : 3
        }, 
        {
            "sampler" : 0, 
            "source" : 4
        }
    ]
}
